# xmcd
#
# Track frame offsets:
#	150
#	19825
#	40979
#	64137
#	80068
#	126850
#	150451
#	188076
#	204980
#
# Disc length: 3066
#
# Revision: 1
# Processed by: cddbd v1.5.1PL0 Copyright (c) Steve Scherf et al.
# Submitted via: CDex 1.51
# Normalized: r0:TRMNUM
#
DISCID=730bf809
DTITLE=Derivados do Blues - Derivados live at Bourbon Street
DYEAR=2005
DGENRE=Blues
TTITLE0=Caldonia - Derivados live at Bourbon Street
TTITLE1=Hoochie Coochie Man - Derivados live at Bourbon Street
TTITLE2=Dock of the Bay - Derivados live at Bourbon Street
TTITLE3=Água de Beber - Derivados live at Bourbon Street
TTITLE4=Five Long Years (com Marcos Ottaviano) - Derivados live at Bourbon Street
TTITLE5=Superstition (com Marcos Ottaviano) - Derivados live at Bourbon Street
TTITLE6=Summertime - Derivados live at Bourbon Street
TTITLE7=Help the Poor - Derivados live at Bourbon Street
TTITLE8=What'd I Say - Derivados live at Bourbon Street
EXTD=YEAR: 2005
EXTT0=
EXTT1=
EXTT2=
EXTT3=
EXTT4=
EXTT5=
EXTT6=
EXTT7=
EXTT8=
PLAYORDER=
